<svg width="32" height="32" viewBox="0 0 32 32" fill="none" xmlns="http://www.w3.org/2000/svg" role="img" aria-label="COORTEXXA">
  <defs>
    <linearGradient id="coortexxaNexusGradientFav" x1="4" y1="4" x2="28" y2="28" gradientUnits="userSpaceOnUse">
      <stop offset="0" stop-color="#2F6BFF"/>
      <stop offset="1" stop-color="#8B5CF6"/>
    </linearGradient>
  </defs>
  <rect width="32" height="32" rx="9" fill="#0B1020"/>
  <g fill="url(#coortexxaNexusGradientFav)" transform="translate(16 16) scale(0.82) translate(-16 -16) rotate(45 16 16)">
    <path d="M17,14 C23,12 29,14 29,16 C29,18 23,20 17,18 Z"/>
    <path d="M17,14 C23,12 29,14 29,16 C29,18 23,20 17,18 Z" transform="rotate(90 16 16)"/>
    <path d="M17,14 C23,12 29,14 29,16 C29,18 23,20 17,18 Z" transform="rotate(180 16 16)"/>
    <path d="M17,14 C23,12 29,14 29,16 C29,18 23,20 17,18 Z" transform="rotate(270 16 16)"/>
  </g>
</svg>
